Normalized EMG Linear Envelopes
nRows=98
nColumns=4

endheader
time	 med_gas_r	  soleus_r	 tib_ant_r	
4.6875	  0.009002	  0.007884	  0.002595	
4.75	  0.008802	  0.008697	  0.003051	
4.8125	  0.008735	  0.008854	  0.003013	
4.875	  0.008575	  0.008412	  0.002673	
4.9375	  0.008176	  0.008015	  0.002377	
5	  0.007960	  0.007912	  0.002201	
5.0625	  0.008063	  0.008016	  0.002076	
5.125	  0.008158	  0.007633	  0.001830	
5.1875	  0.007777	  0.005612	  0.001380	
5.25	  0.006664	  0.000959	  0.000760	
5.3125	  0.005008	 -0.005542	  0.000195	
5.375	  0.003301	 -0.010017	  0.000321	
5.4375	  0.002794	 -0.004254	  0.002337	
5.5	  0.006766	  0.025300	  0.007932	
5.5625	  0.021321	  0.094685	  0.018459	
5.625	  0.053959	  0.212452	  0.033151	
5.6875	  0.108821	  0.355148	  0.047241	
5.75	  0.181898	  0.454676	  0.054380	
5.8125	  0.261073	  0.463657	  0.053767	
5.875	  0.321048	  0.390409	  0.048384	
5.9375	  0.345125	  0.288372	  0.042161	
6	  0.344207	  0.214199	  0.038490	
6.0625	  0.340039	  0.181953	  0.037341	
6.125	  0.338330	  0.164516	  0.036675	
6.1875	  0.334614	  0.142370	  0.035438	
6.25	  0.334462	  0.127847	  0.033481	
6.3125	  0.336164	  0.117751	  0.031844	
6.375	  0.342232	  0.112814	  0.031478	
6.4375	  0.348003	  0.112976	  0.032021	
6.5	  0.352046	  0.115218	  0.031834	
6.5625	  0.348489	  0.120144	  0.030220	
6.625	  0.339304	  0.130600	  0.028911	
6.6875	  0.321812	  0.142932	  0.028722	
6.75	  0.303363	  0.154959	  0.029107	
6.8125	  0.294490	  0.162231	  0.029078	
6.875	  0.290153	  0.171496	  0.028806	
6.9375	  0.284593	  0.187947	  0.028101	
7	  0.281761	  0.210821	  0.027287	
7.0625	  0.285731	  0.218821	  0.026401	
7.125	  0.290818	  0.215147	  0.025574	
7.1875	  0.292798	  0.211632	  0.024821	
7.25	  0.292646	  0.205612	  0.023896	
7.3125	  0.294691	  0.198440	  0.022349	
7.375	  0.299551	  0.193603	  0.020800	
7.4375	  0.305359	  0.194143	  0.019903	
7.5	  0.304672	  0.191133	  0.019749	
7.5625	  0.296665	  0.186472	  0.020245	
7.625	  0.284515	  0.183343	  0.020811	
7.6875	  0.273617	  0.178289	  0.021066	
7.75	  0.265662	  0.164285	  0.020672	
7.8125	  0.255419	  0.147316	  0.019670	
7.875	  0.248313	  0.134758	  0.018578	
7.9375	  0.253597	  0.128892	  0.018217	
8	  0.262589	  0.130993	  0.018564	
8.0625	  0.264511	  0.133834	  0.019045	
8.125	  0.254495	  0.135664	  0.019291	
8.1875	  0.244229	  0.138574	  0.019639	
8.25	  0.238916	  0.142134	  0.020048	
8.3125	  0.240406	  0.142210	  0.019914	
8.375	  0.245304	  0.138197	  0.019141	
8.4375	  0.246389	  0.129717	  0.017813	
8.5	  0.235001	  0.120849	  0.016370	
8.5625	  0.212803	  0.114507	  0.015193	
8.625	  0.192256	  0.110200	  0.014269	
8.6875	  0.185850	  0.105117	  0.013657	
8.75	  0.189435	  0.100713	  0.013310	
8.8125	  0.198256	  0.098666	  0.013415	
8.875	  0.200988	  0.099887	  0.013896	
8.9375	  0.197663	  0.107492	  0.014512	
9	  0.197936	  0.119600	  0.014883	
9.0625	  0.202521	  0.129619	  0.014974	
9.125	  0.211247	  0.138727	  0.014875	
9.1875	  0.222941	  0.145618	  0.014728	
9.25	  0.233251	  0.146150	  0.014570	
9.3125	  0.238383	  0.138237	  0.014228	
9.375	  0.240858	  0.127834	  0.013899	
9.4375	  0.242194	  0.122156	  0.013727	
9.5	  0.240001	  0.120788	  0.013628	
9.5625	  0.237018	  0.117872	  0.013808	
9.625	  0.236172	  0.116102	  0.014350	
9.6875	  0.235908	  0.116248	  0.014792	
9.75	  0.233697	  0.117621	  0.014726	
9.8125	  0.231014	  0.123279	  0.014331	
9.875	  0.222074	  0.129936	  0.013605	
9.9375	  0.204691	  0.134624	  0.012538	
10	  0.181209	  0.126503	  0.011250	
10.0625	  0.156100	  0.110371	  0.009960	
10.125	  0.134505	  0.094024	  0.008989	
10.1875	  0.112647	  0.080269	  0.008122	
10.25	  0.085510	  0.070115	  0.007162	
10.3125	  0.061493	  0.064897	  0.006191	
10.375	  0.044311	  0.063609	  0.005273	
10.4375	  0.032200	  0.068499	  0.004424	
10.5	  0.023610	  0.075418	  0.004018	
10.5625	  0.017591	  0.075481	  0.004326	
10.625	  0.014381	  0.070494	  0.005271	
10.6875	  0.012897	  0.063284	  0.006350	
10.75	  0.011833	  0.052088	  0.006697	
